<svg width="36" height="36" viewBox="0 0 36 36" fill="none" xmlns="http://www.w3.org/2000/svg">
<path d="M18 36C27.9411 36 36 27.9411 36 18C36 8.05887 27.9411 0 18 0C8.05887 0 0 8.05887 0 18C0 27.9411 8.05887 36 18 36Z" fill="#FB5D00"/>
<path d="M36.0002 18C36.0002 17.7059 35.9919 17.414 35.9779 17.1234C35.9333 17.0777 35.8897 17.0287 35.844 16.9895C35.7709 16.9056 25.8417 6.97641 25.7654 6.91053C25.4633 6.56459 25.1307 6.36047 24.7811 6.36047V6.36047C24.0805 6.36047 23.4484 7.17694 22.9944 8.32465C21.4846 7.52183 19.7627 7.06501 17.9335 7.06501C16.5389 7.06501 15.2084 7.3336 13.9847 7.81524C13.9404 7.72953 13.6575 7.44083 13.5556 7.39941C13.4955 7.25035 13.3504 7.14488 13.1801 7.14488C12.9558 7.14488 12.7741 7.32671 12.7741 7.55093V7.98111C12.7301 7.92352 12.2618 7.44076 12.1599 7.39934C12.0998 7.25028 11.9551 7.14481 11.7844 7.14481C11.5601 7.14481 11.3784 7.32664 11.3784 7.55086V7.98104C11.3344 7.92345 10.8661 7.44033 10.7642 7.39927C10.7041 7.25021 10.5594 7.14474 10.3887 7.14474C10.1644 7.14474 9.98267 7.32657 9.98267 7.55079V7.98097C9.93873 7.92338 9.47037 7.44026 9.36849 7.3992C9.30837 7.25014 9.16332 7.14467 8.99302 7.14467C8.76873 7.14467 8.58697 7.3265 8.58697 7.55072V12.4237L8.58627 12.4464L8.58732 12.4611C7.66749 14.0499 7.13867 15.8927 7.13867 17.8604C7.13867 20.699 8.23597 23.2803 10.0273 25.2073C9.93732 25.9014 9.87538 26.4245 9.87538 26.5706V28.3504L9.8682 28.4224C9.8682 28.8155 10.0579 29.1615 10.3474 29.384C10.4122 29.4683 16.7583 35.8143 16.8425 35.8791L16.9286 35.9652C17.2827 35.9863 17.6398 36 18.0002 36C27.9413 36 36.0002 27.9411 36.0002 18Z" fill="#E73B00"/>
<path d="M17.9329 28.6564C23.8952 28.6564 28.7286 23.823 28.7286 17.8607C28.7286 11.8984 23.8952 7.065 17.9329 7.065C11.9706 7.065 7.13721 11.8984 7.13721 17.8607C7.13721 23.823 11.9706 28.6564 17.9329 28.6564Z" fill="white"/>
<path d="M17.9331 26.5116C22.7108 26.5116 26.5839 22.6384 26.5839 17.8607C26.5839 13.083 22.7108 9.20988 17.9331 9.20988C13.1553 9.20988 9.28223 13.083 9.28223 17.8607C9.28223 22.6384 13.1553 26.5116 17.9331 26.5116Z" fill="#D6EAF0"/>
<path d="M17.9331 24.7079C21.7147 24.7079 24.7803 21.6423 24.7803 17.8607C24.7803 14.0791 21.7147 11.0135 17.9331 11.0135C14.1515 11.0135 11.0859 14.0791 11.0859 17.8607C11.0859 21.6423 14.1515 24.7079 17.9331 24.7079Z" fill="white"/>
<path d="M22.2803 12.168C22.2803 14.1339 24.418 14.8115 24.418 15.336C24.418 16.7702 24.418 17.2652 24.418 19.5185C24.418 20.0329 23.5698 25.7504 23.5698 26.2922V28.0721L23.5626 28.1441C23.5626 28.8162 24.1073 29.3609 24.7795 29.3609C25.4516 29.3609 25.9963 28.8162 25.9963 28.1441L25.992 28.1041V26.2814C25.9873 25.7443 25.1438 20.0293 25.1438 19.5181C25.1438 17.1248 25.1438 16.8138 25.1438 15.336C25.1438 14.8115 27.2815 14.1339 27.2815 12.168C27.2815 9.52707 26.1619 6.36047 24.7814 6.36047C23.3999 6.36047 22.2803 9.52742 22.2803 12.168Z" fill="#AADDEE"/>
<path d="M24.7808 29.3609C25.4522 29.3602 25.9958 28.8158 25.9958 28.1441L25.9918 28.1041V26.2814C25.9871 25.7443 25.1436 20.0293 25.1436 19.5181C25.1436 17.1248 25.1436 16.8138 25.1436 15.336C25.1436 14.8115 27.2814 14.1339 27.2814 12.168C27.2814 9.52707 26.1618 6.36047 24.7812 6.36047V6.36047V29.3609H24.7808V29.3609Z" fill="#38B5C7"/>
<path d="M10.794 7.551C10.794 7.3267 10.6121 7.14494 10.3879 7.14494C10.1637 7.14494 9.98186 7.32677 9.98186 7.551V12.4239H9.39826V7.551C9.39826 7.3267 9.21643 7.14494 8.99221 7.14494C8.76791 7.14494 8.58615 7.32677 8.58615 7.551V12.4239L8.58545 12.4466C8.58545 14.4126 10.7232 15.0901 10.7232 15.6146V19.7971C10.7232 20.3115 9.87498 26.029 9.87498 26.5709V28.3507L9.86781 28.4227C9.86781 29.0948 10.4125 29.6395 11.0846 29.6395C11.7568 29.6395 12.3015 29.0948 12.3015 28.4227L12.2975 28.3828V26.5605C12.2928 26.0234 11.4493 20.3084 11.4493 19.7972V15.6147C11.4493 15.0902 13.5871 14.4127 13.5871 12.4467L13.5864 12.424H13.5871V7.55107C13.5871 7.32677 13.4052 7.14501 13.181 7.14501C12.9567 7.14501 12.7749 7.32684 12.7749 7.55107V12.424H12.1914V7.55107C12.1914 7.32677 12.0095 7.14501 11.7853 7.14501C11.561 7.14501 11.3792 7.32684 11.3792 7.55107V12.424H10.7957V7.55107H10.794V7.551Z" fill="#AADDEE"/>
<path d="M11.7839 7.14494C11.5596 7.14494 11.3779 7.32677 11.3779 7.551V12.4239H11.0859V29.6391C11.7574 29.638 12.3009 29.094 12.3009 28.4223L12.297 26.56C12.2923 26.0229 11.4488 20.3079 11.4488 19.7968V15.6146C11.4488 15.0901 13.5865 14.4126 13.5865 12.4466V7.551C13.5865 7.3267 13.4047 7.14494 13.1805 7.14494C12.9562 7.14494 12.7744 7.32677 12.7744 7.551V12.4239H12.1908V7.551C12.19 7.3267 12.0082 7.14494 11.7839 7.14494Z" fill="#38B5C7"/>
</svg>
